<svg width="263" height="363" viewBox="0 0 263 363" fill="none" xmlns="http://www.w3.org/2000/svg">
<path fill-rule="evenodd" clip-rule="evenodd" d="M130.271 1.50143C128.683 2.35026 124.265 3.42112 120.453 3.88254C112.231 4.87708 97.9116 9.23687 87.7112 13.8511C73.8619 20.1167 58.1413 32.9104 46.8943 47.0675C39.7502 56.0612 37.3488 60.6742 30.2347 79.0813C26.1527 89.6408 25.7577 91.6507 25.6815 102.21C25.6006 113.522 25.4539 114.138 18.922 130.418C15.25 139.572 9.40073 153.287 5.92396 160.895C2.4472 168.503 -0.212949 174.912 0.0134448 175.139C0.239839 175.366 1.92854 174.258 3.76511 172.677L7.10674 169.803L9.20666 175.325C11.1264 180.376 11.1564 181.223 9.55782 185.238C7.7432 189.796 8.27337 192.229 12.025 196.553C13.0069 197.684 13.8917 202.75 14.3468 209.852C15.6566 230.266 15.5573 231.824 12.7019 235.691L10.0742 239.248H14.073C19.1322 239.248 21.8478 242.896 23.9755 252.548C24.8163 256.364 26.9428 261.828 28.6997 264.69C30.4577 267.552 34.0615 266.151 34.7823 269.013C35.5042 271.875 39.3252 281.486 39.3252 281.486C39.3252 281.486 43.3236 294.641 47.5188 301.159C50.9877 306.548 58.4891 313.839 58.4891 313.839C58.4891 313.839 65.2209 322.781 67.2965 325.114L78.7029 337.98C78.7029 337.98 82.788 342.899 87.5067 346.115C92.2153 349.325 101.66 356.194 101.66 356.194C101.66 356.194 117.798 363.335 122.018 362.988C127.871 362.505 138.374 363.144 148.299 361.109C160.132 358.682 164.368 357.609 174.927 350.701C180.986 346.737 187.857 342.027 187.857 342.027C187.857 340.57 193.179 337.189 197.098 332.92C201.742 327.862 215.916 310.383 218.178 307.912C230.884 283.039 233.1 289.004 235.681 270.088C236.972 260.622 237.434 259.453 242.006 254.09C246.903 248.346 247.276 247.49 248.691 238.749C249.8 231.897 257.12 207.297 260.301 199.729C263.493 192.136 263.804 187.172 261.496 180.625C259.13 173.908 257.316 157.094 257.469 143.264C257.759 116.721 248.918 87.225 231.471 56.5307C219.916 36.2016 209.556 25.8607 192.001 17.1354C182.215 12.2702 179.279 10.273 178.998 8.28743C178.598 5.47727 173.413 3.82125 166.294 4.22947C164.19 4.34974 161.198 3.61656 159.648 2.59889C156.446 0.49879 149.712 0.274442 144.898 2.10625C142.354 3.07419 141.108 2.96548 139.167 1.60435C136.16 -0.504998 134.07 -0.529284 130.271 1.50143ZM137.872 6.39318C140.296 7.98328 141.495 8.07811 145.184 6.9714C151.262 5.14769 155.848 5.31422 158.92 7.46751C160.348 8.46899 163.193 9.19755 165.241 9.08537C172.304 8.70028 173.794 9.12007 175.032 11.84C175.714 13.3388 179.177 16.2044 182.726 18.2109C186.276 20.2161 192.309 24.2394 196.132 27.1502C204.919 33.8413 210.216 43.0292 203.083 39.2072C196.87 35.8778 165.133 25.153 156.429 23.4403C143.336 20.8649 113.071 22.603 101.138 26.6159C96.8674 28.0522 93.0603 28.9137 92.678 28.5309C91.5714 27.4219 95.2896 21.1066 99.2064 17.4418C101.18 15.595 106.153 12.8958 110.257 11.4457C116.77 9.1432 118.086 9.00442 120.605 10.3551C122.89 11.5787 123.896 11.6076 125.437 10.4916C128.581 8.21573 134.286 4.50008 134.643 4.49546C134.824 4.49314 136.277 5.3466 137.872 6.39318ZM152.795 49.0312C186.257 54.012 200.752 60.2926 218.788 77.6277C229.02 87.4632 240.637 103.693 247.253 117.395C252.677 128.633 252.994 130.269 252.817 146.155C252.702 156.584 253.388 163.957 255.581 175.827L258.499 191.62L255.009 200.346C251.015 210.334 243.468 237.108 243.468 241.291C243.468 244.832 240.004 250.813 237.953 250.813C237.1 250.813 236.626 250.423 236.9 249.946C237.175 249.469 237.04 246.736 236.601 243.874L235.801 238.67L234.421 243.874C230.059 260.34 230.743 268.195 227.563 277.017C225.614 282.423 224.905 284.041 221.932 289.622C219.098 294.943 215.933 298.871 211.681 303.576C205.575 310.329 194.499 326.415 194.499 326.415C194.499 326.415 197.622 310.461 193.058 288.733C194.999 283.748 195.05 271.633 189.015 263.869C182.933 256.043 175.139 256.887 165.707 253.858C157.704 251.287 155.282 253.958 148.299 251.721C144.689 250.564 140.358 250.564 136.315 251.721C129.551 253.656 129.557 251.825 119.875 254.568C92.9691 262.19 91.8278 262.699 87.5067 269.013C83.4282 274.973 83.7366 280.573 88.4204 285.577C92.1582 289.57 93.8492 289.622 93.8492 289.622L87.5067 336.43C87.5067 336.43 80.6838 329.555 79.5692 328.48C76.0761 325.109 70.769 313.657 65.5639 307.189C60.4144 300.79 54.4521 297.974 51.9918 294.642C50.4163 292.51 45 274.407 43.525 274.793C41.8351 275.236 41.3165 274.739 41.2715 272.632C40.9411 257.149 40.3116 248.601 39.3252 246.187C38.1816 243.392 38.0974 243.465 36.7575 248.387C35.9951 251.186 34.4496 255.199 33.3234 257.304L31.2743 261.13L30.0569 256.839C29.3869 254.479 27.9881 249.57 26.9497 245.929C25.8166 241.958 24.0413 238.595 22.5108 237.521C20.3104 235.977 19.9408 234.587 19.8102 227.372C19.4302 206.292 18.3918 197.248 15.9743 193.975C13.2575 190.295 13.0692 188.503 14.9647 184.338C16.0574 181.938 15.9315 180.128 14.3179 175.004C12.0631 167.842 12.4536 165.653 17.2321 158.668C21.2414 152.806 21.5879 149.97 17.8663 153.471C13.1247 157.929 13.0773 156.188 17.6653 146.172C20.8694 139.177 27.2455 122.836 29.6584 115.438C32.605 106.403 41.9079 94.1949 56.4919 80.2227C76.5301 61.0258 98.421 49.2833 118.72 46.842C125.071 46.0788 138.943 46.9704 152.795 49.0312ZM232.527 119.557C233.016 125.281 233.554 137.771 233.724 147.311C233.892 156.852 234.773 168.164 235.678 172.45C236.584 176.736 237.442 187.144 237.585 195.579C237.728 204.014 238.252 211.331 238.748 211.839C240.275 213.399 243.85 199.806 243.951 192.061C244.039 185.283 244.148 184.984 245.437 188C246.203 189.791 247.175 192.97 247.596 195.066C248.57 199.894 250.634 199.275 251.936 193.765C252.809 190.065 252.374 188.345 248.586 180.554C245.405 174.009 244.118 169.728 243.81 164.658L243.386 157.719L245.216 161.744C246.595 164.777 247.291 165.372 248.041 164.156C249.146 162.366 249.076 161.848 246.394 151.937C245.272 147.792 244.496 140.342 244.467 133.434L244.417 121.87L242.08 126.408C239.304 131.794 238.874 131.314 235.475 119.032C234.185 114.369 232.793 110.238 232.384 109.852C231.974 109.465 232.039 113.832 232.527 119.557ZM92.1535 132.316C88.0241 133.235 82.8264 134.331 80.6029 134.751C71.524 136.464 55.1912 145.985 55.1912 149.563C55.1912 152.75 57.3189 152.482 63.1393 148.56C67.7006 145.488 70.6969 144.428 76.6271 143.792C87.6003 142.616 88.7692 142.711 96.6214 145.432C100.72 146.852 106.576 147.89 110.494 147.89C114.224 147.89 119.29 148.573 121.751 149.408C130.615 152.416 132.787 149.159 126.783 141.866C122.437 136.588 112.874 131.8 105.366 131.143C102.229 130.868 96.2829 131.395 92.1535 132.316ZM35.1172 137.193C32.2111 141.723 29.3304 150.026 28.0852 157.463C27.6821 159.866 26.9336 161.571 26.4219 161.256C25.2102 160.505 20.106 179.723 20.2215 184.599C20.27 186.662 21.6872 190.701 23.369 193.576C27.4499 200.546 31.6751 211.982 32.7008 218.829C33.2968 222.813 33.8871 224.034 34.7823 223.138C35.6763 222.243 35.6359 220.411 34.6379 216.675C32.7609 209.651 32.9099 202.031 35.1 192.991C36.2261 188.342 37.0658 178.635 37.3015 167.549C37.5105 157.69 38.2394 146.242 38.9197 142.107C40.4386 132.884 40.4398 132.856 39.0364 132.856C38.4103 132.856 36.6465 134.808 35.1172 137.193ZM181.207 140.101C177.01 142.261 171.424 149.725 172.297 152.004C172.934 153.665 174.138 153.822 180.82 153.12C185.1 152.669 191.44 151.569 194.909 150.674C206.241 147.749 212.525 149.161 220.842 156.498C225.13 160.282 225.797 159.562 223.092 154.065C220.641 149.084 211.688 143.111 202.541 140.355C195.643 138.275 184.998 138.149 181.207 140.101ZM114.334 157.276C114.947 159.13 119.098 161.391 123.552 162.298C127.54 163.11 128.164 165.229 129.007 180.835C129.594 191.696 129.987 193.6 131.715 193.931C133.968 194.361 134.266 192.349 133.918 179.046C133.654 169.035 131.491 161.901 127.942 159.341C124.139 156.596 113.58 154.995 114.334 157.276ZM86.3782 166.486C75.0112 167.81 67.2664 172.545 69.8191 176.609C71.539 179.347 77.8642 182.835 80.2714 182.371C81.7718 182.082 81.103 181.268 77.7197 179.27L73.1341 176.56L77.1572 174.416C82.5595 171.537 82.913 171.616 82.913 175.721C82.913 182.451 84.485 183.739 92.7034 183.739C96.7727 183.739 100.437 183.198 100.844 182.538C101.253 181.876 101.587 179.011 101.587 176.168V171.001L105.033 173.034C106.928 174.151 109.305 175.976 110.314 177.09C112.018 178.971 111.927 179.114 109.013 179.114C107.217 179.114 106.183 179.607 106.592 180.27C107.471 181.695 119.875 181.822 119.875 180.408C119.875 178.427 112.304 171.856 107.533 169.695C100.854 166.671 93.8723 165.613 86.3782 166.486ZM185.259 171.626C181.286 172.992 176.923 175.913 170.802 181.303C169.271 182.651 168.231 183.936 168.492 184.157C169.237 184.792 180.228 188.365 181.433 188.365C182.027 188.365 181.675 187.083 180.649 185.514C178.318 181.953 178.271 179.558 180.517 178.695C181.803 178.201 182.249 178.866 182.249 181.283C182.249 187.054 188.025 190.234 195.059 188.337C199.863 187.042 201.885 184.504 201.885 179.768C201.885 178.136 202.181 176.801 202.544 176.801C202.905 176.801 205.523 178.399 208.358 180.353C215.416 185.214 217.203 184.041 211.476 178.307C204.552 171.376 193.884 168.656 185.259 171.626ZM121.081 219.714C119.015 221.691 116.291 225.648 115.029 228.506C111.979 235.407 112.928 240.29 118.219 244.943C122.662 248.849 123.118 248.995 125.651 247.317C127.119 246.346 126.942 245.823 124.496 243.892C122.907 242.638 121.269 241.601 120.855 241.587C120.44 241.573 119.543 239.956 118.859 237.994C117.227 233.306 119.539 227.629 125.193 222.444C129.144 218.821 129.63 216.12 126.331 216.12C125.51 216.12 123.148 217.738 121.081 219.714ZM167.774 223.117C167.361 223.786 168.37 225.583 170.016 227.11C173.75 230.575 173.802 233.501 170.204 237.782C168.399 239.93 167.74 241.669 168.356 242.665C169.736 244.902 172.647 243.367 175.308 238.999C178.056 234.484 178.213 231.322 175.955 225.912C174.68 222.857 173.595 221.902 171.403 221.902C169.819 221.902 168.187 222.449 167.774 223.117ZM127.037 234.854C123.715 238.18 127.2 242.056 134.602 243.272C140.868 244.3 140.887 242.92 134.683 237.604C129.308 232.997 129.001 232.887 127.037 234.854ZM160.78 235.719C155.804 236.901 154.527 237.879 154.527 240.509C154.527 243.818 157.707 244.529 160.65 241.881C162.047 240.622 164.143 239.255 165.308 238.841C167.413 238.094 167.495 235.561 165.429 235.108C164.833 234.979 162.741 235.253 160.78 235.719ZM140.066 271.525C144.423 271.082 148.683 271.726 153.205 270.088C156.207 269.003 158.412 270.378 165.429 271.525C181.15 274.096 177.64 273.46 183.815 277.986C190.003 291.073 188.015 281.697 193.058 288.733C197.622 310.461 194.499 326.415 194.499 326.415C194.499 326.415 183.304 336.127 181.938 337.401C176.376 342.59 173.539 343.293 166.777 347.995C161.984 351.327 158.958 352.503 153.205 354.066C146.741 355.822 142.999 355.688 136.315 355.078C129.921 354.494 123.745 356.463 119.875 355.078C108.163 350.886 111.538 352.513 101.66 346.115C91.6564 339.637 87.5067 336.43 87.5067 336.43L93.8492 289.622C93.8492 289.622 94.4945 284.093 97.4758 280.776C98.9058 279.187 102.423 276.097 108.449 273.549C119.004 269.085 119.89 269.434 128.807 270.088C133.899 270.462 135.656 271.973 140.066 271.525ZM149.33 277.017C145.837 278.004 141.272 278.387 137.779 277.986C124.993 276.519 116.625 277.09 112.378 279.718C108.341 282.215 106.921 285.506 109.879 285.506C110.735 285.506 113.138 284.655 115.219 283.617C118.367 282.044 121.264 281.852 132.434 282.473C142.672 283.043 147.374 282.808 152.217 281.486C160.635 279.187 163.565 279.28 168.92 282.014C172.244 283.71 173.8 283.976 174.927 283.039C177.024 281.297 175.848 279.853 170.268 277.316C164.744 274.806 157.524 274.702 149.33 277.017ZM156.26 292.146C147.004 296.032 136.705 296.481 126.95 293.423C119.766 291.172 116.229 291.657 118.071 294.642C119.71 297.296 132.665 300.677 142.425 300.329C148.508 300.113 152.335 300.11 157.704 297.238C161.241 295.346 166.526 292.971 165.682 290.766C164.838 288.563 164.779 288.571 156.26 292.146Z" fill="black"/>
</svg>
