<svg width="400" height="400" viewBox="0 0 400 400" fill="none" xmlns="http://www.w3.org/2000/svg">
<rect x="0.000732422" y="3.05176e-05" width="400" height="400" fill="white"/>
<path fill-rule="evenodd" clip-rule="evenodd" d="M199.271 19.5014C197.683 20.3503 193.265 21.4211 189.453 21.8825C181.231 22.8771 166.912 27.2369 156.711 31.8511C142.862 38.1167 127.141 50.9104 115.894 65.0675C108.75 74.0612 106.349 78.6742 99.2347 97.0813C95.1527 107.641 94.7577 109.651 94.6815 120.21C94.6006 131.522 94.4539 132.138 87.922 148.418C84.25 157.572 78.4007 171.287 74.924 178.895C71.4472 186.503 68.7871 192.912 69.0134 193.139C69.2398 193.366 70.9285 192.258 72.7651 190.677L76.1067 187.803L78.2067 193.325C80.1264 198.376 80.1564 199.223 78.5578 203.238C76.7432 207.796 77.2734 210.229 81.025 214.553C82.0069 215.684 82.8917 220.75 83.3468 227.852C84.6566 248.266 84.5573 249.824 81.7019 253.691L79.0742 257.248H83.073C88.1322 257.248 90.8478 260.896 92.9755 270.548C93.8163 274.364 95.9428 279.828 97.6997 282.69C99.4577 285.552 103.062 284.151 103.782 287.013C104.504 289.875 108.325 299.486 108.325 299.486C108.325 299.486 112.324 312.641 116.519 319.159C119.988 324.548 127.489 331.839 127.489 331.839C127.489 331.839 134.221 340.781 136.297 343.114L147.703 355.98C147.703 355.98 151.788 360.899 156.507 364.115C161.215 367.325 170.66 374.194 170.66 374.194C170.66 374.194 186.798 381.335 191.018 380.988C196.871 380.505 207.374 381.144 217.299 379.109C229.132 376.682 233.368 375.609 243.927 368.701C249.986 364.737 256.857 360.027 256.857 360.027C256.857 358.57 262.179 355.189 266.098 350.92C270.742 345.862 284.916 328.383 287.178 325.912C299.884 301.039 302.1 307.004 304.681 288.088C305.972 278.622 306.434 277.453 311.006 272.09C315.903 266.346 316.276 265.49 317.691 256.749C318.8 249.897 326.12 225.297 329.301 217.729C332.493 210.136 332.804 205.172 330.496 198.625C328.13 191.908 326.316 175.094 326.469 161.264C326.759 134.721 317.918 105.225 300.471 74.5307C288.916 54.2016 278.556 43.8607 261.001 35.1354C251.215 30.2702 248.279 28.273 247.998 26.2874C247.598 23.4773 242.413 21.8212 235.294 22.2295C233.19 22.3497 230.198 21.6166 228.648 20.5989C225.446 18.4988 218.712 18.2744 213.898 20.1062C211.354 21.0742 210.108 20.9655 208.167 19.6044C205.16 17.495 203.07 17.4707 199.271 19.5014ZM206.872 24.3932C209.296 25.9833 210.495 26.0781 214.184 24.9714C220.262 23.1477 224.848 23.3142 227.92 25.4675C229.348 26.469 232.193 27.1975 234.241 27.0854C241.304 26.7003 242.794 27.1201 244.032 29.84C244.714 31.3388 248.177 34.2044 251.726 36.2109C255.276 38.2161 261.309 42.2394 265.132 45.1502C273.919 51.8413 279.216 61.0292 272.083 57.2072C265.87 53.8778 234.133 43.153 225.429 41.4403C212.336 38.8649 182.071 40.603 170.138 44.6159C165.867 46.0522 162.06 46.9137 161.678 46.5309C160.571 45.4219 164.29 39.1066 168.206 35.4418C170.18 33.595 175.153 30.8958 179.257 29.4457C185.77 27.1432 187.086 27.0044 189.605 28.3551C191.89 29.5787 192.896 29.6076 194.437 28.4916C197.581 26.2157 203.286 22.5001 203.643 22.4955C203.824 22.4931 205.277 23.3466 206.872 24.3932ZM221.795 67.0312C255.257 72.012 269.752 78.2926 287.788 95.6277C298.02 105.463 309.637 121.693 316.253 135.395C321.677 146.633 321.994 148.269 321.817 164.155C321.702 174.584 322.388 181.957 324.581 193.827L327.499 209.62L324.009 218.346C320.015 228.334 312.468 255.108 312.468 259.291C312.468 262.832 309.004 268.813 306.953 268.813C306.1 268.813 305.626 268.423 305.9 267.946C306.175 267.469 306.04 264.736 305.601 261.874L304.801 256.67L303.421 261.874C299.059 278.34 299.743 286.195 296.563 295.017C294.614 300.423 293.905 302.041 290.932 307.622C288.098 312.943 284.933 316.871 280.681 321.576C274.575 328.329 263.499 344.415 263.499 344.415C263.499 344.415 266.622 328.461 262.058 306.733C263.999 301.748 264.05 289.633 258.015 281.869C251.933 274.043 244.139 274.887 234.707 271.858C226.704 269.287 224.282 271.958 217.299 269.721C213.689 268.564 209.358 268.564 205.315 269.721C198.551 271.656 198.557 269.825 188.875 272.568C161.969 280.19 160.828 280.699 156.507 287.013C152.428 292.973 152.737 298.573 157.42 303.577C161.158 307.57 162.849 307.622 162.849 307.622L156.507 354.43C156.507 354.43 149.684 347.555 148.569 346.48C145.076 343.109 139.769 331.657 134.564 325.189C129.414 318.79 123.452 315.974 120.992 312.642C119.416 310.51 114 292.407 112.525 292.793C110.835 293.236 110.317 292.739 110.271 290.632C109.941 275.149 109.312 266.601 108.325 264.187C107.182 261.392 107.097 261.465 105.757 266.387C104.995 269.186 103.45 273.199 102.323 275.304L100.274 279.13L99.0569 274.839C98.3869 272.479 96.9881 267.57 95.9497 263.929C94.8166 259.958 93.0413 256.595 91.5108 255.521C89.3104 253.977 88.9408 252.587 88.8102 245.372C88.4302 224.292 87.3918 215.248 84.9743 211.975C82.2575 208.295 82.0692 206.503 83.9647 202.338C85.0574 199.938 84.9315 198.128 83.3179 193.004C81.0631 185.842 81.4536 183.653 86.2321 176.668C90.2414 170.806 90.5879 167.97 86.8663 171.471C82.1247 175.929 82.0773 174.188 86.6653 164.172C89.8694 157.177 96.2455 140.836 98.6584 133.438C101.605 124.403 110.908 112.195 125.492 98.2227C145.53 79.0258 167.421 67.2833 187.72 64.842C194.071 64.0788 207.943 64.9704 221.795 67.0312ZM301.527 137.557C302.016 143.281 302.554 155.771 302.724 165.311C302.892 174.852 303.773 186.164 304.678 190.45C305.584 194.736 306.442 205.144 306.585 213.579C306.728 222.014 307.252 229.331 307.748 229.839C309.275 231.399 312.85 217.806 312.951 210.061C313.039 203.283 313.148 202.984 314.437 206C315.203 207.791 316.175 210.97 316.596 213.066C317.57 217.894 319.634 217.275 320.936 211.765C321.809 208.065 321.374 206.345 317.586 198.554C314.405 192.009 313.118 187.728 312.81 182.658L312.386 175.719L314.216 179.744C315.595 182.777 316.291 183.372 317.041 182.156C318.146 180.366 318.076 179.848 315.394 169.937C314.272 165.792 313.496 158.342 313.467 151.434L313.417 139.87L311.08 144.408C308.304 149.794 307.874 149.314 304.475 137.032C303.185 132.369 301.793 128.238 301.384 127.852C300.974 127.465 301.039 131.832 301.527 137.557ZM161.154 150.316C157.024 151.235 151.826 152.331 149.603 152.751C140.524 154.464 124.191 163.985 124.191 167.563C124.191 170.75 126.319 170.482 132.139 166.56C136.701 163.488 139.697 162.428 145.627 161.792C156.6 160.616 157.769 160.711 165.621 163.432C169.72 164.852 175.576 165.89 179.494 165.89C183.224 165.89 188.29 166.573 190.751 167.408C199.615 170.416 201.787 167.159 195.783 159.866C191.437 154.588 181.874 149.8 174.366 149.143C171.229 148.868 165.283 149.395 161.154 150.316ZM104.117 155.193C101.211 159.723 98.3304 168.026 97.0852 175.463C96.6821 177.866 95.9336 179.571 95.4219 179.256C94.2102 178.505 89.106 197.723 89.2215 202.599C89.27 204.662 90.6872 208.701 92.369 211.576C96.4499 218.546 100.675 229.982 101.701 236.829C102.297 240.813 102.887 242.034 103.782 241.138C104.676 240.243 104.636 238.411 103.638 234.675C101.761 227.651 101.91 220.031 104.1 210.991C105.226 206.342 106.066 196.635 106.301 185.549C106.511 175.69 107.239 164.242 107.92 160.107C109.439 150.884 109.44 150.856 108.036 150.856C107.41 150.856 105.647 152.808 104.117 155.193ZM250.207 158.101C246.01 160.261 240.424 167.725 241.297 170.004C241.934 171.665 243.138 171.822 249.82 171.12C254.1 170.669 260.44 169.569 263.909 168.674C275.241 165.749 281.525 167.161 289.842 174.498C294.13 178.282 294.797 177.562 292.092 172.065C289.641 167.084 280.688 161.111 271.541 158.355C264.643 156.275 253.998 156.149 250.207 158.101ZM183.334 175.276C183.947 177.13 188.098 179.391 192.552 180.298C196.54 181.11 197.164 183.229 198.007 198.835C198.594 209.696 198.987 211.6 200.715 211.931C202.968 212.361 203.266 210.349 202.918 197.046C202.654 187.035 200.491 179.901 196.942 177.341C193.139 174.596 182.58 172.995 183.334 175.276ZM155.378 184.486C144.011 185.81 136.266 190.545 138.819 194.609C140.539 197.347 146.864 200.835 149.271 200.371C150.772 200.082 150.103 199.268 146.72 197.27L142.134 194.56L146.157 192.416C151.559 189.537 151.913 189.616 151.913 193.721C151.913 200.451 153.485 201.739 161.703 201.739C165.773 201.739 169.437 201.198 169.844 200.538C170.253 199.876 170.587 197.011 170.587 194.168V189.001L174.033 191.034C175.928 192.151 178.305 193.976 179.314 195.09C181.018 196.971 180.927 197.114 178.013 197.114C176.217 197.114 175.183 197.607 175.592 198.27C176.471 199.695 188.875 199.822 188.875 198.408C188.875 196.427 181.304 189.856 176.533 187.695C169.854 184.671 162.872 183.613 155.378 184.486ZM254.259 189.626C250.286 190.992 245.923 193.913 239.802 199.303C238.271 200.651 237.231 201.936 237.492 202.157C238.237 202.792 249.228 206.365 250.433 206.365C251.027 206.365 250.675 205.083 249.649 203.514C247.318 199.953 247.271 197.558 249.517 196.695C250.803 196.201 251.249 196.866 251.249 199.283C251.249 205.054 257.025 208.234 264.059 206.337C268.863 205.042 270.885 202.504 270.885 197.768C270.885 196.136 271.181 194.801 271.544 194.801C271.905 194.801 274.523 196.399 277.358 198.353C284.416 203.214 286.203 202.041 280.476 196.307C273.552 189.376 262.884 186.656 254.259 189.626ZM190.081 237.714C188.015 239.691 185.291 243.648 184.029 246.506C180.979 253.407 181.928 258.29 187.219 262.943C191.662 266.849 192.118 266.995 194.651 265.317C196.119 264.346 195.942 263.823 193.496 261.892C191.907 260.638 190.269 259.601 189.855 259.587C189.44 259.573 188.543 257.956 187.859 255.994C186.227 251.306 188.539 245.629 194.193 240.444C198.144 236.821 198.63 234.12 195.331 234.12C194.51 234.12 192.148 235.738 190.081 237.714ZM236.774 241.117C236.361 241.786 237.37 243.583 239.016 245.11C242.75 248.575 242.802 251.501 239.204 255.782C237.399 257.93 236.74 259.669 237.356 260.665C238.736 262.902 241.647 261.367 244.308 256.999C247.056 252.484 247.213 249.322 244.955 243.912C243.68 240.857 242.595 239.902 240.403 239.902C238.819 239.902 237.187 240.449 236.774 241.117ZM196.037 252.854C192.715 256.18 196.2 260.056 203.602 261.272C209.868 262.3 209.887 260.92 203.683 255.604C198.308 250.997 198.001 250.887 196.037 252.854ZM229.78 253.719C224.804 254.901 223.527 255.879 223.527 258.509C223.527 261.818 226.707 262.529 229.65 259.881C231.047 258.622 233.143 257.255 234.308 256.841C236.413 256.094 236.495 253.561 234.429 253.108C233.833 252.979 231.741 253.253 229.78 253.719ZM209.066 289.525C213.423 289.082 217.683 289.726 222.205 288.088C225.207 287.003 227.412 288.378 234.429 289.525C250.15 292.096 246.64 291.46 252.815 295.986C259.003 309.073 257.015 299.697 262.058 306.733C266.622 328.461 263.499 344.415 263.499 344.415C263.499 344.415 252.304 354.127 250.938 355.401C245.376 360.59 242.539 361.293 235.777 365.995C230.984 369.327 227.958 370.503 222.205 372.066C215.741 373.822 211.999 373.688 205.315 373.078C198.921 372.494 192.745 374.463 188.875 373.078C177.163 368.886 180.538 370.513 170.66 364.115C160.656 357.637 156.507 354.43 156.507 354.43L162.849 307.622C162.849 307.622 163.495 302.093 166.476 298.776C167.906 297.187 171.423 294.097 177.449 291.549C188.004 287.085 188.89 287.434 197.807 288.088C202.899 288.462 204.656 289.973 209.066 289.525ZM218.33 295.017C214.837 296.004 210.272 296.387 206.779 295.986C193.993 294.519 185.625 295.09 181.378 297.718C177.341 300.215 175.921 303.506 178.879 303.506C179.735 303.506 182.138 302.655 184.219 301.617C187.367 300.044 190.264 299.852 201.434 300.473C211.672 301.043 216.374 300.808 221.217 299.486C229.635 297.187 232.565 297.28 237.92 300.014C241.244 301.71 242.8 301.976 243.927 301.039C246.024 299.297 244.848 297.853 239.268 295.316C233.744 292.806 226.524 292.702 218.33 295.017ZM225.26 310.146C216.004 314.032 205.705 314.481 195.95 311.423C188.766 309.172 185.229 309.657 187.071 312.642C188.71 315.296 201.665 318.677 211.425 318.329C217.508 318.113 221.335 318.11 226.704 315.238C230.241 313.346 235.526 310.971 234.682 308.766C233.838 306.563 233.779 306.571 225.26 310.146Z" fill="black"/>
</svg>
